# xmcd CD database file
#
# Track frame offsets:
#	150
#	19837
#	37121
#	59467
#	79535
#	100952
#	129948
#	156785
#	186985
#	207487
#	232831
#	250787
#	268735
#	285764
#	305826
#	319379
#
# Disc length: 4673 seconds
#
# Revision: 2
# Processed by: cddbd v1.4b41PL1 Copyright (c) Steve Scherf et al.
# Submitted via: Feurio! 1.50.2ß - http://www.feurio.com
#
DISCID=de123f10
DTITLE=Peter Gabriel - Shakin the Tree
DYEAR=1900
DGENRE=
TTITLE0=Solsbury Hill
TTITLE1=I Don't Remember
TTITLE2=Sledgehammer
TTITLE3=Family Snapshot
TTITLE4=Mercy Sreeet
TTITLE5=Shaking The Tree
TTITLE6=Don't Give Up
TTITLE7=San Jacinto
TTITLE8=Here Comes The Flood
TTITLE9=Red Rain
TTITLE10=Games Without Frontiers
TTITLE11=Shock The Monkey
TTITLE12=I Have The Touch
TTITLE13=Big Time
TTITLE14=Zaar
TTITLE15=Biko
EXTD=
EXTT0=
EXTT1=
EXTT2=
EXTT3=
EXTT4=
EXTT5=
EXTT6=
EXTT7=
EXTT8=
EXTT9=
EXTT10=
EXTT11=
EXTT12=
EXTT13=
EXTT14=
EXTT15=
PLAYORDER=
